Title                            : 2012
Year                             : 2009
Genre                            : Action | Adventure | Drama | Sci-Fi | Thriller
iMDB URL                         : http://www.imdb.com/title/tt1190080/
Awards                           : 2 wins & 4 nominations

Complete name                    : 2012.BRRIP.H264-ZEKTORM.mp4
Format                           : MPEG-4
Format profile                   : Base Media
Codec ID                         : isom
File size                        : 1.66 GiB
Duration                         : 2h 37mn
Overall bit rate                 : 1506 Kbps
Subtitles                        : English (Format: srt)

Video
ID                               : 1
Format                           : AVC
Format/Info                      : Advanced Video Codec
Format profile                   : High@L3.0
Format settings, CABAC           : Yes
Codec ID                         : avc1
Codec ID/Info                    : Advanced Video Coding
Duration                         : 2h 37mn
Bit rate mode                    : Variable
Bit rate                         : 1197 Kbps
Maximum bit rate                 : 9393 Kbps
Width                            : 1280 pixels
Height                           : 528 pixels
Display aspect ratio             : 2.424
Frame rate mode                  : Constant
Frame rate                       : 23.976 fps
Resolution                       : 24 bits
Colorimetry                      : 4:2:0
Scan type                        : Progressive
Bits/(Pixel*Frame)               : 0.074
Stream size                      : 1.32 GiB (79%)
Title                            : Video
Writing library                  : x264

Audio #1
ID                               : 2
Format                           : AAC
Format/Info                      : Advanced Audio Codec
Format version                   : Version 4
Format profile                   : LC
Format settings, SBR             : Yes
Format settings, PS              : No
Codec ID                         : 40
Duration                         : 2h 37mn
Bit rate mode                    : Variable
Bit rate                         : 223 Kbps
Maximum bit rate                 : 274 Kbps
Channel(s)                       : 6 channels
Channel positions                : Front: L C R, Rear: L R, LFE
Sampling rate                    : 48.0 KHz
Resolution                       : 16 bits
Stream size                      : 252 MiB (15%)
Title                            : English
Language                         : English

Audio #2
ID                               : 3
Format                           : AAC
Format/Info                      : Advanced Audio Codec
Format version                   : Version 4
Format profile                   : LC
Format settings, SBR             : Yes
Format settings, PS              : No
Codec ID                         : 40
Duration                         : 2h 37mn
Bit rate mode                    : Variable
Bit rate                         : 82.3 Kbps
Maximum bit rate                 : 113 Kbps
Channel(s)                       : 2 channels
Channel positions                : L R
Sampling rate                    : 48.0 KHz
Resolution                       : 16 bits
Stream size                      : 93.0 MiB (5%)
Title                            : English
Language                         : English
